{"scene":0,"scenes":[{"nodes":[0]}],"asset":{"version":"2.0","generator":"https://github.com/mikedh/trimesh"},"accessors":[{"componentType":5125,"type":"SCALAR","bufferView":0,"count":36,"max":[7],"min":[0]},{"componentType":5126,"type":"VEC3","byteOffset":0,"bufferView":1,"count":8,"max":[1.5499999523162842,2.5,0.07500000298023224],"min":[0.0,0.0,-0.07500000298023224]},{"componentType":5126,"type":"VEC3","byteOffset":0,"bufferView":2,"count":8,"max":[4.0,2.5,0.07500000298023224],"min":[2.450000047683716,0.0,-0.07500000298023224]},{"componentType":5126,"type":"VEC3","byteOffset":0,"bufferView":3,"count":8,"max":[2.450000047683716,2.5,0.07500000298023224],"min":[1.5499999523162842,2.0999999046325684,-0.07500000298023224]},{"componentType":5126,"type":"VEC3","byteOffset":0,"bufferView":4,"count":8,"max":[4.074999809265137,2.5,-0.0],"min":[3.924999952316284,0.0,-0.8999999761581421]},{"componentType":5126,"type":"VEC3","byteOffset":0,"bufferView":5,"count":8,"max":[4.074999809265137,2.5,-2.0999999046325684],"min":[3.924999952316284,0.0,-3.0]},{"componentType":5126,"type":"VEC3","byteOffset":0,"bufferView":6,"count":8,"max":[4.074999809265137,2.5,-0.8999999761581421],"min":[3.924999952316284,2.0,-2.0999999046325684]},{"componentType":5126,"type":"VEC3","byteOffset":0,"bufferView":7,"count":8,"max":[4.074999809265137,0.8999999761581421,-0.8999999761581421],"min":[3.924999952316284,0.0,-2.0999999046325684]},{"componentType":5126,"type":"VEC3","byteOffset":0,"bufferView":8,"count":8,"max":[4.0,2.5,-2.924999952316284],"min":[0.0,0.0,-3.075000047683716]},{"componentType":5126,"type":"VEC3","byteOffset":0,"bufferView":9,"count":8,"max":[0.07500000298023224,2.5,-0.0],"min":[-0.07500000298023224,0.0,-3.0]},{"componentType":5125,"type":"SCALAR","bufferView":10,"count":36,"max":[7],"min":[0]},{"componentType":5126,"type":"VEC3","byteOffset":0,"bufferView":11,"count":8,"max":[4.0,0.0,-0.0],"min":[0.0,-0.05000000074505806,-3.0]},{"componentType":5126,"type":"VEC3","byteOffset":0,"bufferView":12,"count":8,"max":[1.5499999523162842,5.199999809265137,0.07500000298023224],"min":[0.0,2.700000047683716,-0.07500000298023224]},{"componentType":5126,"type":"VEC3","byteOffset":0,"bufferView":13,"count":8,"max":[4.0,5.199999809265137,0.07500000298023224],"min":[2.450000047683716,2.700000047683716,-0.07500000298023224]},{"componentType":5126,"type":"VEC3","byteOffset":0,"bufferView":14,"count":8,"max":[2.450000047683716,5.199999809265137,0.07500000298023224],"min":[1.5499999523162842,4.800000190734863,-0.07500000298023224]},{"componentType":5126,"type":"VEC3","byteOffset":0,"bufferView":15,"count":8,"max":[4.074999809265137,5.199999809265137,0.0],"min":[3.924999952316284,2.700000047683716,-0.8999999761581421]},{"componentType":5126,"type":"VEC3","byteOffset":0,"bufferView":16,"count":8,"max":[4.074999809265137,5.199999809265137,-2.0999999046325684],"min":[3.924999952316284,2.700000047683716,-3.0]},{"componentType":5126,"type":"VEC3","byteOffset":0,"bufferView":17,"count":8,"max":[4.074999809265137,5.199999809265137,-0.8999999761581421],"min":[3.924999952316284,4.699999809265137,-2.0999999046325684]},{"componentType":5126,"type":"VEC3","byteOffset":0,"bufferView":18,"count":8,"max":[4.074999809265137,3.5999999046325684,-0.8999999761581421],"min":[3.924999952316284,2.700000047683716,-2.0999999046325684]},{"componentType":5126,"type":"VEC3","byteOffset":0,"bufferView":19,"count":8,"max":[4.0,5.199999809265137,-2.924999952316284],"min":[0.0,2.700000047683716,-3.075000047683716]},{"componentType":5126,"type":"VEC3","byteOffset":0,"bufferView":20,"count":8,"max":[0.07500000298023224,5.199999809265137,0.0],"min":[-0.07500000298023224,2.700000047683716,-3.0]},{"componentType":5126,"type":"VEC3","byteOffset":0,"bufferView":21,"count":8,"max":[4.0,2.700000047683716,0.0],"min":[0.0,2.6500000953674316,-3.0]}],"meshes":[{"name":"p0_w_sur_jamb_0","extras":{"surface_id":"w_sur_jamb_0","name":"w_sur_jamb_0","plano_index":0},"primitives":[{"attributes":{"POSITION":1},"indices":0,"mode":4}]},{"name":"p0_w_sur_jamb_1","extras":{"surface_id":"w_sur_jamb_1","name":"w_sur_jamb_1","plano_index":0},"primitives":[{"attributes":{"POSITION":2},"indices":0,"mode":4}]},{"name":"p0_w_sur_lintel_op_puerta","extras":{"surface_id":"w_sur_lintel_op_puerta","name":"w_sur_lintel_op_puerta","plano_index":0},"primitives":[{"attributes":{"POSITION":3},"indices":0,"mode":4}]},{"name":"p0_w_este_jamb_0","extras":{"surface_id":"w_este_jamb_0","name":"w_este_jamb_0","plano_index":0},"primitives":[{"attributes":{"POSITION":4},"indices":0,"mode":4}]},{"name":"p0_w_este_jamb_1","extras":{"surface_id":"w_este_jamb_1","name":"w_este_jamb_1","plano_index":0},"primitives":[{"attributes":{"POSITION":5},"indices":0,"mode":4}]},{"name":"p0_w_este_lintel_op_ventana","extras":{"surface_id":"w_este_lintel_op_ventana","name":"w_este_lintel_op_ventana","plano_index":0},"primitives":[{"attributes":{"POSITION":6},"indices":0,"mode":4}]},{"name":"p0_w_este_sill_op_ventana","extras":{"surface_id":"w_este_sill_op_ventana","name":"w_este_sill_op_ventana","plano_index":0},"primitives":[{"attributes":{"POSITION":7},"indices":0,"mode":4}]},{"name":"p0_w_norte","extras":{"surface_id":"w_norte","name":"w_norte","plano_index":0},"primitives":[{"attributes":{"POSITION":8},"indices":0,"mode":4}]},{"name":"p0_w_oeste","extras":{"surface_id":"w_oeste","name":"w_oeste","plano_index":0},"primitives":[{"attributes":{"POSITION":9},"indices":0,"mode":4}]},{"name":"p0_room_sala","extras":{"processed":true,"surface_id":"room_sala","name":"room_sala","plano_index":0},"primitives":[{"attributes":{"POSITION":11},"indices":10,"mode":4}]},{"name":"p1_w_sur_jamb_0","extras":{"surface_id":"w_sur_jamb_0","name":"w_sur_jamb_0","plano_index":1},"primitives":[{"attributes":{"POSITION":12},"indices":0,"mode":4}]},{"name":"p1_w_sur_jamb_1","extras":{"surface_id":"w_sur_jamb_1","name":"w_sur_jamb_1","plano_index":1},"primitives":[{"attributes":{"POSITION":13},"indices":0,"mode":4}]},{"name":"p1_w_sur_lintel_op_puerta","extras":{"surface_id":"w_sur_lintel_op_puerta","name":"w_sur_lintel_op_puerta","plano_index":1},"primitives":[{"attributes":{"POSITION":14},"indices":0,"mode":4}]},{"name":"p1_w_este_jamb_0","extras":{"surface_id":"w_este_jamb_0","name":"w_este_jamb_0","plano_index":1},"primitives":[{"attributes":{"POSITION":15},"indices":0,"mode":4}]},{"name":"p1_w_este_jamb_1","extras":{"surface_id":"w_este_jamb_1","name":"w_este_jamb_1","plano_index":1},"primitives":[{"attributes":{"POSITION":16},"indices":0,"mode":4}]},{"name":"p1_w_este_lintel_op_ventana","extras":{"surface_id":"w_este_lintel_op_ventana","name":"w_este_lintel_op_ventana","plano_index":1},"primitives":[{"attributes":{"POSITION":17},"indices":0,"mode":4}]},{"name":"p1_w_este_sill_op_ventana","extras":{"surface_id":"w_este_sill_op_ventana","name":"w_este_sill_op_ventana","plano_index":1},"primitives":[{"attributes":{"POSITION":18},"indices":0,"mode":4}]},{"name":"p1_w_norte","extras":{"surface_id":"w_norte","name":"w_norte","plano_index":1},"primitives":[{"attributes":{"POSITION":19},"indices":0,"mode":4}]},{"name":"p1_w_oeste","extras":{"surface_id":"w_oeste","name":"w_oeste","plano_index":1},"primitives":[{"attributes":{"POSITION":20},"indices":0,"mode":4}]},{"name":"p1_room_sala","extras":{"processed":true,"surface_id":"room_sala","name":"room_sala","plano_index":1},"primitives":[{"attributes":{"POSITION":21},"indices":10,"mode":4}]}],"nodes":[{"name":"world","children":[1,2,3,4,5,6,7,8,9,10,11,12,13,14,15,16,17,18,19,20]},{"name":"p0_w_sur_jamb_0","mesh":0},{"name":"p0_w_sur_jamb_1","mesh":1},{"name":"p0_w_sur_lintel_op_puerta","mesh":2},{"name":"p0_w_este_jamb_0","mesh":3},{"name":"p0_w_este_jamb_1","mesh":4},{"name":"p0_w_este_lintel_op_ventana","mesh":5},{"name":"p0_w_este_sill_op_ventana","mesh":6},{"name":"p0_w_norte","mesh":7},{"name":"p0_w_oeste","mesh":8},{"name":"p0_room_sala","mesh":9},{"name":"p1_w_sur_jamb_0","mesh":10},{"name":"p1_w_sur_jamb_1","mesh":11},{"name":"p1_w_sur_lintel_op_puerta","mesh":12},{"name":"p1_w_este_jamb_0","mesh":13},{"name":"p1_w_este_jamb_1","mesh":14},{"name":"p1_w_este_lintel_op_ventana","mesh":15},{"name":"p1_w_este_sill_op_ventana","mesh":16},{"name":"p1_w_norte","mesh":17},{"name":"p1_w_oeste","mesh":18},{"name":"p1_room_sala","mesh":19}],"buffers":[{"uri":"gltf_buffer_0.bin","byteLength":144},{"uri":"gltf_buffer_1.bin","byteLength":96},{"uri":"gltf_buffer_2.bin","byteLength":96},{"uri":"gltf_buffer_3.bin","byteLength":96},{"uri":"gltf_buffer_4.bin","byteLength":96},{"uri":"gltf_buffer_5.bin","byteLength":96},{"uri":"gltf_buffer_6.bin","byteLength":96},{"uri":"gltf_buffer_7.bin","byteLength":96},{"uri":"gltf_buffer_8.bin","byteLength":96},{"uri":"gltf_buffer_9.bin","byteLength":96},{"uri":"gltf_buffer_10.bin","byteLength":144},{"uri":"gltf_buffer_11.bin","byteLength":96},{"uri":"gltf_buffer_12.bin","byteLength":96},{"uri":"gltf_buffer_13.bin","byteLength":96},{"uri":"gltf_buffer_14.bin","byteLength":96},{"uri":"gltf_buffer_15.bin","byteLength":96},{"uri":"gltf_buffer_16.bin","byteLength":96},{"uri":"gltf_buffer_17.bin","byteLength":96},{"uri":"gltf_buffer_18.bin","byteLength":96},{"uri":"gltf_buffer_19.bin","byteLength":96},{"uri":"gltf_buffer_20.bin","byteLength":96},{"uri":"gltf_buffer_21.bin","byteLength":96}],"bufferViews":[{"buffer":0,"byteOffset":0,"byteLength":144},{"buffer":1,"byteOffset":0,"byteLength":96},{"buffer":2,"byteOffset":0,"byteLength":96},{"buffer":3,"byteOffset":0,"byteLength":96},{"buffer":4,"byteOffset":0,"byteLength":96},{"buffer":5,"byteOffset":0,"byteLength":96},{"buffer":6,"byteOffset":0,"byteLength":96},{"buffer":7,"byteOffset":0,"byteLength":96},{"buffer":8,"byteOffset":0,"byteLength":96},{"buffer":9,"byteOffset":0,"byteLength":96},{"buffer":10,"byteOffset":0,"byteLength":144},{"buffer":11,"byteOffset":0,"byteLength":96},{"buffer":12,"byteOffset":0,"byteLength":96},{"buffer":13,"byteOffset":0,"byteLength":96},{"buffer":14,"byteOffset":0,"byteLength":96},{"buffer":15,"byteOffset":0,"byteLength":96},{"buffer":16,"byteOffset":0,"byteLength":96},{"buffer":17,"byteOffset":0,"byteLength":96},{"buffer":18,"byteOffset":0,"byteLength":96},{"buffer":19,"byteOffset":0,"byteLength":96},{"buffer":20,"byteOffset":0,"byteLength":96},{"buffer":21,"byteOffset":0,"byteLength":96}]}