{"scene":0,"scenes":[{"nodes":[0]}],"asset":{"version":"2.0","generator":"https://github.com/mikedh/trimesh"},"accessors":[{"componentType":5125,"type":"SCALAR","bufferView":0,"count":36,"max":[7],"min":[0]},{"componentType":5126,"type":"VEC3","byteOffset":0,"bufferView":1,"count":8,"max":[1.5499999523162842,2.5,-0.0],"min":[0.0,0.0,-0.07500000298023224]},{"componentType":5126,"type":"VEC3","byteOffset":0,"bufferView":2,"count":8,"max":[1.5499999523162842,2.5,0.07500000298023224],"min":[0.0,0.0,-0.0]},{"componentType":5126,"type":"VEC3","byteOffset":0,"bufferView":3,"count":8,"max":[4.0,2.5,-0.0],"min":[2.450000047683716,0.0,-0.07500000298023224]},{"componentType":5126,"type":"VEC3","byteOffset":0,"bufferView":4,"count":8,"max":[4.0,2.5,0.07500000298023224],"min":[2.450000047683716,0.0,-0.0]},{"componentType":5126,"type":"VEC3","byteOffset":0,"bufferView":5,"count":8,"max":[2.450000047683716,2.5,-0.0],"min":[1.5499999523162842,2.0999999046325684,-0.07500000298023224]},{"componentType":5126,"type":"VEC3","byteOffset":0,"bufferView":6,"count":8,"max":[2.450000047683716,2.5,0.07500000298023224],"min":[1.5499999523162842,2.0999999046325684,-0.0]},{"componentType":5126,"type":"VEC3","byteOffset":0,"bufferView":7,"count":8,"max":[4.0,2.5,-0.0],"min":[3.924999952316284,0.0,-0.8999999761581421]},{"componentType":5126,"type":"VEC3","byteOffset":0,"bufferView":8,"count":8,"max":[4.074999809265137,2.5,-0.0],"min":[4.0,0.0,-0.8999999761581421]},{"componentType":5126,"type":"VEC3","byteOffset":0,"bufferView":9,"count":8,"max":[4.0,2.5,-2.0999999046325684],"min":[3.924999952316284,0.0,-3.0]},{"componentType":5126,"type":"VEC3","byteOffset":0,"bufferView":10,"count":8,"max":[4.074999809265137,2.5,-2.0999999046325684],"min":[4.0,0.0,-3.0]},{"componentType":5126,"type":"VEC3","byteOffset":0,"bufferView":11,"count":8,"max":[4.0,2.5,-0.8999999761581421],"min":[3.924999952316284,2.0,-2.0999999046325684]},{"componentType":5126,"type":"VEC3","byteOffset":0,"bufferView":12,"count":8,"max":[4.074999809265137,2.5,-0.8999999761581421],"min":[4.0,2.0,-2.0999999046325684]},{"componentType":5126,"type":"VEC3","byteOffset":0,"bufferView":13,"count":8,"max":[4.0,0.8999999761581421,-0.8999999761581421],"min":[3.924999952316284,0.0,-2.0999999046325684]},{"componentType":5126,"type":"VEC3","byteOffset":0,"bufferView":14,"count":8,"max":[4.074999809265137,0.8999999761581421,-0.8999999761581421],"min":[4.0,0.0,-2.0999999046325684]},{"componentType":5126,"type":"VEC3","byteOffset":0,"bufferView":15,"count":8,"max":[4.0,2.5,-2.924999952316284],"min":[0.0,0.0,-3.0]},{"componentType":5126,"type":"VEC3","byteOffset":0,"bufferView":16,"count":8,"max":[4.0,2.5,-3.0],"min":[0.0,0.0,-3.075000047683716]},{"componentType":5126,"type":"VEC3","byteOffset":0,"bufferView":17,"count":8,"max":[0.07500000298023224,2.5,-0.0],"min":[-9.184850732644269e-17,0.0,-3.0]},{"componentType":5126,"type":"VEC3","byteOffset":0,"bufferView":18,"count":8,"max":[9.184850732644269e-17,2.5,-0.0],"min":[-0.07500000298023224,0.0,-3.0]},{"componentType":5125,"type":"SCALAR","bufferView":19,"count":36,"max":[7],"min":[0]},{"componentType":5126,"type":"VEC3","byteOffset":0,"bufferView":20,"count":8,"max":[4.0,0.0,-0.0],"min":[0.0,-0.05000000074505806,-3.0]},{"componentType":5126,"type":"VEC3","byteOffset":0,"bufferView":21,"count":8,"max":[4.0,2.549999952316284,-0.0],"min":[0.0,2.5,-3.0]},{"componentType":5126,"type":"VEC3","byteOffset":0,"bufferView":22,"count":8,"max":[1.5499999523162842,5.199999809265137,0.0],"min":[0.0,2.700000047683716,-0.07500000298023224]},{"componentType":5126,"type":"VEC3","byteOffset":0,"bufferView":23,"count":8,"max":[1.5499999523162842,5.199999809265137,0.07500000298023224],"min":[0.0,2.700000047683716,0.0]},{"componentType":5126,"type":"VEC3","byteOffset":0,"bufferView":24,"count":8,"max":[4.0,5.199999809265137,0.0],"min":[2.450000047683716,2.700000047683716,-0.07500000298023224]},{"componentType":5126,"type":"VEC3","byteOffset":0,"bufferView":25,"count":8,"max":[4.0,5.199999809265137,0.07500000298023224],"min":[2.450000047683716,2.700000047683716,0.0]},{"componentType":5126,"type":"VEC3","byteOffset":0,"bufferView":26,"count":8,"max":[2.450000047683716,5.199999809265137,0.0],"min":[1.5499999523162842,4.800000190734863,-0.07500000298023224]},{"componentType":5126,"type":"VEC3","byteOffset":0,"bufferView":27,"count":8,"max":[2.450000047683716,5.199999809265137,0.07500000298023224],"min":[1.5499999523162842,4.800000190734863,0.0]},{"componentType":5126,"type":"VEC3","byteOffset":0,"bufferView":28,"count":8,"max":[4.0,5.199999809265137,0.0],"min":[3.924999952316284,2.700000047683716,-0.8999999761581421]},{"componentType":5126,"type":"VEC3","byteOffset":0,"bufferView":29,"count":8,"max":[4.074999809265137,5.199999809265137,0.0],"min":[4.0,2.700000047683716,-0.8999999761581421]},{"componentType":5126,"type":"VEC3","byteOffset":0,"bufferView":30,"count":8,"max":[4.0,5.199999809265137,-2.0999999046325684],"min":[3.924999952316284,2.700000047683716,-3.0]},{"componentType":5126,"type":"VEC3","byteOffset":0,"bufferView":31,"count":8,"max":[4.074999809265137,5.199999809265137,-2.0999999046325684],"min":[4.0,2.700000047683716,-3.0]},{"componentType":5126,"type":"VEC3","byteOffset":0,"bufferView":32,"count":8,"max":[4.0,5.199999809265137,-0.8999999761581421],"min":[3.924999952316284,4.699999809265137,-2.0999999046325684]},{"componentType":5126,"type":"VEC3","byteOffset":0,"bufferView":33,"count":8,"max":[4.074999809265137,5.199999809265137,-0.8999999761581421],"min":[4.0,4.699999809265137,-2.0999999046325684]},{"componentType":5126,"type":"VEC3","byteOffset":0,"bufferView":34,"count":8,"max":[4.0,3.5999999046325684,-0.8999999761581421],"min":[3.924999952316284,2.700000047683716,-2.0999999046325684]},{"componentType":5126,"type":"VEC3","byteOffset":0,"bufferView":35,"count":8,"max":[4.074999809265137,3.5999999046325684,-0.8999999761581421],"min":[4.0,2.700000047683716,-2.0999999046325684]},{"componentType":5126,"type":"VEC3","byteOffset":0,"bufferView":36,"count":8,"max":[4.0,5.199999809265137,-2.924999952316284],"min":[0.0,2.700000047683716,-3.0]},{"componentType":5126,"type":"VEC3","byteOffset":0,"bufferView":37,"count":8,"max":[4.0,5.199999809265137,-3.0],"min":[0.0,2.700000047683716,-3.075000047683716]},{"componentType":5126,"type":"VEC3","byteOffset":0,"bufferView":38,"count":8,"max":[0.07500000298023224,5.199999809265137,0.0],"min":[-9.184850732644269e-17,2.700000047683716,-3.0]},{"componentType":5126,"type":"VEC3","byteOffset":0,"bufferView":39,"count":8,"max":[9.184850732644269e-17,5.199999809265137,0.0],"min":[-0.07500000298023224,2.700000047683716,-3.0]},{"componentType":5126,"type":"VEC3","byteOffset":0,"bufferView":40,"count":8,"max":[4.0,2.700000047683716,0.0],"min":[0.0,2.6500000953674316,-3.0]},{"componentType":5126,"type":"VEC3","byteOffset":0,"bufferView":41,"count":8,"max":[4.0,5.25,0.0],"min":[0.0,5.199999809265137,-3.0]},{"componentType":5126,"type":"VEC3","byteOffset":0,"bufferView":42,"count":8,"max":[4.0,2.640000104904175,0.0],"min":[0.0,2.440000057220459,-3.0]}],"meshes":[{"name":"p0_w_sur_jamb_0.cara_interior","extras":{"surface_id":"w_sur_jamb_0.cara_interior","name":"w_sur_jamb_0.cara_interior","plano_index":0},"primitives":[{"attributes":{"POSITION":1},"indices":0,"mode":4}]},{"name":"p0_w_sur_jamb_0.cara_exterior","extras":{"surface_id":"w_sur_jamb_0.cara_exterior","name":"w_sur_jamb_0.cara_exterior","plano_index":0},"primitives":[{"attributes":{"POSITION":2},"indices":0,"mode":4}]},{"name":"p0_w_sur_jamb_1.cara_interior","extras":{"surface_id":"w_sur_jamb_1.cara_interior","name":"w_sur_jamb_1.cara_interior","plano_index":0},"primitives":[{"attributes":{"POSITION":3},"indices":0,"mode":4}]},{"name":"p0_w_sur_jamb_1.cara_exterior","extras":{"surface_id":"w_sur_jamb_1.cara_exterior","name":"w_sur_jamb_1.cara_exterior","plano_index":0},"primitives":[{"attributes":{"POSITION":4},"indices":0,"mode":4}]},{"name":"p0_w_sur_lintel_op_puerta.cara_interior","extras":{"surface_id":"w_sur_lintel_op_puerta.cara_interior","name":"w_sur_lintel_op_puerta.cara_interior","plano_index":0},"primitives":[{"attributes":{"POSITION":5},"indices":0,"mode":4}]},{"name":"p0_w_sur_lintel_op_puerta.cara_exterior","extras":{"surface_id":"w_sur_lintel_op_puerta.cara_exterior","name":"w_sur_lintel_op_puerta.cara_exterior","plano_index":0},"primitives":[{"attributes":{"POSITION":6},"indices":0,"mode":4}]},{"name":"p0_w_este_jamb_0.cara_interior","extras":{"surface_id":"w_este_jamb_0.cara_interior","name":"w_este_jamb_0.cara_interior","plano_index":0},"primitives":[{"attributes":{"POSITION":7},"indices":0,"mode":4}]},{"name":"p0_w_este_jamb_0.cara_exterior","extras":{"surface_id":"w_este_jamb_0.cara_exterior","name":"w_este_jamb_0.cara_exterior","plano_index":0},"primitives":[{"attributes":{"POSITION":8},"indices":0,"mode":4}]},{"name":"p0_w_este_jamb_1.cara_interior","extras":{"surface_id":"w_este_jamb_1.cara_interior","name":"w_este_jamb_1.cara_interior","plano_index":0},"primitives":[{"attributes":{"POSITION":9},"indices":0,"mode":4}]},{"name":"p0_w_este_jamb_1.cara_exterior","extras":{"surface_id":"w_este_jamb_1.cara_exterior","name":"w_este_jamb_1.cara_exterior","plano_index":0},"primitives":[{"attributes":{"POSITION":10},"indices":0,"mode":4}]},{"name":"p0_w_este_lintel_op_ventana.cara_interior","extras":{"surface_id":"w_este_lintel_op_ventana.cara_interior","name":"w_este_lintel_op_ventana.cara_interior","plano_index":0},"primitives":[{"attributes":{"POSITION":11},"indices":0,"mode":4}]},{"name":"p0_w_este_lintel_op_ventana.cara_exterior","extras":{"surface_id":"w_este_lintel_op_ventana.cara_exterior","name":"w_este_lintel_op_ventana.cara_exterior","plano_index":0},"primitives":[{"attributes":{"POSITION":12},"indices":0,"mode":4}]},{"name":"p0_w_este_sill_op_ventana.cara_interior","extras":{"surface_id":"w_este_sill_op_ventana.cara_interior","name":"w_este_sill_op_ventana.cara_interior","plano_index":0},"primitives":[{"attributes":{"POSITION":13},"indices":0,"mode":4}]},{"name":"p0_w_este_sill_op_ventana.cara_exterior","extras":{"surface_id":"w_este_sill_op_ventana.cara_exterior","name":"w_este_sill_op_ventana.cara_exterior","plano_index":0},"primitives":[{"attributes":{"POSITION":14},"indices":0,"mode":4}]},{"name":"p0_w_norte.cara_interior","extras":{"surface_id":"w_norte.cara_interior","name":"w_norte.cara_interior","plano_index":0},"primitives":[{"attributes":{"POSITION":15},"indices":0,"mode":4}]},{"name":"p0_w_norte.cara_exterior","extras":{"surface_id":"w_norte.cara_exterior","name":"w_norte.cara_exterior","plano_index":0},"primitives":[{"attributes":{"POSITION":16},"indices":0,"mode":4}]},{"name":"p0_w_oeste.cara_interior","extras":{"surface_id":"w_oeste.cara_interior","name":"w_oeste.cara_interior","plano_index":0},"primitives":[{"attributes":{"POSITION":17},"indices":0,"mode":4}]},{"name":"p0_w_oeste.cara_exterior","extras":{"surface_id":"w_oeste.cara_exterior","name":"w_oeste.cara_exterior","plano_index":0},"primitives":[{"attributes":{"POSITION":18},"indices":0,"mode":4}]},{"name":"p0_room_sala.piso","extras":{"processed":true,"surface_id":"room_sala.piso","name":"room_sala.piso","plano_index":0},"primitives":[{"attributes":{"POSITION":20},"indices":19,"mode":4}]},{"name":"p0_room_sala.techo","extras":{"processed":true,"surface_id":"room_sala.techo","name":"room_sala.techo","plano_index":0},"primitives":[{"attributes":{"POSITION":21},"indices":19,"mode":4}]},{"name":"p1_w_sur_jamb_0.cara_interior","extras":{"surface_id":"w_sur_jamb_0.cara_interior","name":"w_sur_jamb_0.cara_interior","plano_index":1},"primitives":[{"attributes":{"POSITION":22},"indices":0,"mode":4}]},{"name":"p1_w_sur_jamb_0.cara_exterior","extras":{"surface_id":"w_sur_jamb_0.cara_exterior","name":"w_sur_jamb_0.cara_exterior","plano_index":1},"primitives":[{"attributes":{"POSITION":23},"indices":0,"mode":4}]},{"name":"p1_w_sur_jamb_1.cara_interior","extras":{"surface_id":"w_sur_jamb_1.cara_interior","name":"w_sur_jamb_1.cara_interior","plano_index":1},"primitives":[{"attributes":{"POSITION":24},"indices":0,"mode":4}]},{"name":"p1_w_sur_jamb_1.cara_exterior","extras":{"surface_id":"w_sur_jamb_1.cara_exterior","name":"w_sur_jamb_1.cara_exterior","plano_index":1},"primitives":[{"attributes":{"POSITION":25},"indices":0,"mode":4}]},{"name":"p1_w_sur_lintel_op_puerta.cara_interior","extras":{"surface_id":"w_sur_lintel_op_puerta.cara_interior","name":"w_sur_lintel_op_puerta.cara_interior","plano_index":1},"primitives":[{"attributes":{"POSITION":26},"indices":0,"mode":4}]},{"name":"p1_w_sur_lintel_op_puerta.cara_exterior","extras":{"surface_id":"w_sur_lintel_op_puerta.cara_exterior","name":"w_sur_lintel_op_puerta.cara_exterior","plano_index":1},"primitives":[{"attributes":{"POSITION":27},"indices":0,"mode":4}]},{"name":"p1_w_este_jamb_0.cara_interior","extras":{"surface_id":"w_este_jamb_0.cara_interior","name":"w_este_jamb_0.cara_interior","plano_index":1},"primitives":[{"attributes":{"POSITION":28},"indices":0,"mode":4}]},{"name":"p1_w_este_jamb_0.cara_exterior","extras":{"surface_id":"w_este_jamb_0.cara_exterior","name":"w_este_jamb_0.cara_exterior","plano_index":1},"primitives":[{"attributes":{"POSITION":29},"indices":0,"mode":4}]},{"name":"p1_w_este_jamb_1.cara_interior","extras":{"surface_id":"w_este_jamb_1.cara_interior","name":"w_este_jamb_1.cara_interior","plano_index":1},"primitives":[{"attributes":{"POSITION":30},"indices":0,"mode":4}]},{"name":"p1_w_este_jamb_1.cara_exterior","extras":{"surface_id":"w_este_jamb_1.cara_exterior","name":"w_este_jamb_1.cara_exterior","plano_index":1},"primitives":[{"attributes":{"POSITION":31},"indices":0,"mode":4}]},{"name":"p1_w_este_lintel_op_ventana.cara_interior","extras":{"surface_id":"w_este_lintel_op_ventana.cara_interior","name":"w_este_lintel_op_ventana.cara_interior","plano_index":1},"primitives":[{"attributes":{"POSITION":32},"indices":0,"mode":4}]},{"name":"p1_w_este_lintel_op_ventana.cara_exterior","extras":{"surface_id":"w_este_lintel_op_ventana.cara_exterior","name":"w_este_lintel_op_ventana.cara_exterior","plano_index":1},"primitives":[{"attributes":{"POSITION":33},"indices":0,"mode":4}]},{"name":"p1_w_este_sill_op_ventana.cara_interior","extras":{"surface_id":"w_este_sill_op_ventana.cara_interior","name":"w_este_sill_op_ventana.cara_interior","plano_index":1},"primitives":[{"attributes":{"POSITION":34},"indices":0,"mode":4}]},{"name":"p1_w_este_sill_op_ventana.cara_exterior","extras":{"surface_id":"w_este_sill_op_ventana.cara_exterior","name":"w_este_sill_op_ventana.cara_exterior","plano_index":1},"primitives":[{"attributes":{"POSITION":35},"indices":0,"mode":4}]},{"name":"p1_w_norte.cara_interior","extras":{"surface_id":"w_norte.cara_interior","name":"w_norte.cara_interior","plano_index":1},"primitives":[{"attributes":{"POSITION":36},"indices":0,"mode":4}]},{"name":"p1_w_norte.cara_exterior","extras":{"surface_id":"w_norte.cara_exterior","name":"w_norte.cara_exterior","plano_index":1},"primitives":[{"attributes":{"POSITION":37},"indices":0,"mode":4}]},{"name":"p1_w_oeste.cara_interior","extras":{"surface_id":"w_oeste.cara_interior","name":"w_oeste.cara_interior","plano_index":1},"primitives":[{"attributes":{"POSITION":38},"indices":0,"mode":4}]},{"name":"p1_w_oeste.cara_exterior","extras":{"surface_id":"w_oeste.cara_exterior","name":"w_oeste.cara_exterior","plano_index":1},"primitives":[{"attributes":{"POSITION":39},"indices":0,"mode":4}]},{"name":"p1_room_sala.piso","extras":{"processed":true,"surface_id":"room_sala.piso","name":"room_sala.piso","plano_index":1},"primitives":[{"attributes":{"POSITION":40},"indices":19,"mode":4}]},{"name":"p1_room_sala.techo","extras":{"processed":true,"surface_id":"room_sala.techo","name":"room_sala.techo","plano_index":1},"primitives":[{"attributes":{"POSITION":41},"indices":19,"mode":4}]},{"name":"p1_slab","extras":{"processed":true,"surface_id":"slab_1","name":"slab_1","plano_index":1},"primitives":[{"attributes":{"POSITION":42},"indices":19,"mode":4}]}],"nodes":[{"name":"world","children":[1,2,3,4,5,6,7,8,9,10,11,12,13,14,15,16,17,18,19,20,21,22,23,24,25,26,27,28,29,30,31,32,33,34,35,36,37,38,39,40,41]},{"name":"p0_w_sur_jamb_0.cara_interior","mesh":0},{"name":"p0_w_sur_jamb_0.cara_exterior","mesh":1},{"name":"p0_w_sur_jamb_1.cara_interior","mesh":2},{"name":"p0_w_sur_jamb_1.cara_exterior","mesh":3},{"name":"p0_w_sur_lintel_op_puerta.cara_interior","mesh":4},{"name":"p0_w_sur_lintel_op_puerta.cara_exterior","mesh":5},{"name":"p0_w_este_jamb_0.cara_interior","mesh":6},{"name":"p0_w_este_jamb_0.cara_exterior","mesh":7},{"name":"p0_w_este_jamb_1.cara_interior","mesh":8},{"name":"p0_w_este_jamb_1.cara_exterior","mesh":9},{"name":"p0_w_este_lintel_op_ventana.cara_interior","mesh":10},{"name":"p0_w_este_lintel_op_ventana.cara_exterior","mesh":11},{"name":"p0_w_este_sill_op_ventana.cara_interior","mesh":12},{"name":"p0_w_este_sill_op_ventana.cara_exterior","mesh":13},{"name":"p0_w_norte.cara_interior","mesh":14},{"name":"p0_w_norte.cara_exterior","mesh":15},{"name":"p0_w_oeste.cara_interior","mesh":16},{"name":"p0_w_oeste.cara_exterior","mesh":17},{"name":"p0_room_sala.piso","mesh":18},{"name":"p0_room_sala.techo","mesh":19},{"name":"p1_w_sur_jamb_0.cara_interior","mesh":20},{"name":"p1_w_sur_jamb_0.cara_exterior","mesh":21},{"name":"p1_w_sur_jamb_1.cara_interior","mesh":22},{"name":"p1_w_sur_jamb_1.cara_exterior","mesh":23},{"name":"p1_w_sur_lintel_op_puerta.cara_interior","mesh":24},{"name":"p1_w_sur_lintel_op_puerta.cara_exterior","mesh":25},{"name":"p1_w_este_jamb_0.cara_interior","mesh":26},{"name":"p1_w_este_jamb_0.cara_exterior","mesh":27},{"name":"p1_w_este_jamb_1.cara_interior","mesh":28},{"name":"p1_w_este_jamb_1.cara_exterior","mesh":29},{"name":"p1_w_este_lintel_op_ventana.cara_interior","mesh":30},{"name":"p1_w_este_lintel_op_ventana.cara_exterior","mesh":31},{"name":"p1_w_este_sill_op_ventana.cara_interior","mesh":32},{"name":"p1_w_este_sill_op_ventana.cara_exterior","mesh":33},{"name":"p1_w_norte.cara_interior","mesh":34},{"name":"p1_w_norte.cara_exterior","mesh":35},{"name":"p1_w_oeste.cara_interior","mesh":36},{"name":"p1_w_oeste.cara_exterior","mesh":37},{"name":"p1_room_sala.piso","mesh":38},{"name":"p1_room_sala.techo","mesh":39},{"name":"p1_slab","mesh":40}],"buffers":[{"uri":"gltf_buffer_0.bin","byteLength":144},{"uri":"gltf_buffer_1.bin","byteLength":96},{"uri":"gltf_buffer_2.bin","byteLength":96},{"uri":"gltf_buffer_3.bin","byteLength":96},{"uri":"gltf_buffer_4.bin","byteLength":96},{"uri":"gltf_buffer_5.bin","byteLength":96},{"uri":"gltf_buffer_6.bin","byteLength":96},{"uri":"gltf_buffer_7.bin","byteLength":96},{"uri":"gltf_buffer_8.bin","byteLength":96},{"uri":"gltf_buffer_9.bin","byteLength":96},{"uri":"gltf_buffer_10.bin","byteLength":96},{"uri":"gltf_buffer_11.bin","byteLength":96},{"uri":"gltf_buffer_12.bin","byteLength":96},{"uri":"gltf_buffer_13.bin","byteLength":96},{"uri":"gltf_buffer_14.bin","byteLength":96},{"uri":"gltf_buffer_15.bin","byteLength":96},{"uri":"gltf_buffer_16.bin","byteLength":96},{"uri":"gltf_buffer_17.bin","byteLength":96},{"uri":"gltf_buffer_18.bin","byteLength":96},{"uri":"gltf_buffer_19.bin","byteLength":144},{"uri":"gltf_buffer_20.bin","byteLength":96},{"uri":"gltf_buffer_21.bin","byteLength":96},{"uri":"gltf_buffer_22.bin","byteLength":96},{"uri":"gltf_buffer_23.bin","byteLength":96},{"uri":"gltf_buffer_24.bin","byteLength":96},{"uri":"gltf_buffer_25.bin","byteLength":96},{"uri":"gltf_buffer_26.bin","byteLength":96},{"uri":"gltf_buffer_27.bin","byteLength":96},{"uri":"gltf_buffer_28.bin","byteLength":96},{"uri":"gltf_buffer_29.bin","byteLength":96},{"uri":"gltf_buffer_30.bin","byteLength":96},{"uri":"gltf_buffer_31.bin","byteLength":96},{"uri":"gltf_buffer_32.bin","byteLength":96},{"uri":"gltf_buffer_33.bin","byteLength":96},{"uri":"gltf_buffer_34.bin","byteLength":96},{"uri":"gltf_buffer_35.bin","byteLength":96},{"uri":"gltf_buffer_36.bin","byteLength":96},{"uri":"gltf_buffer_37.bin","byteLength":96},{"uri":"gltf_buffer_38.bin","byteLength":96},{"uri":"gltf_buffer_39.bin","byteLength":96},{"uri":"gltf_buffer_40.bin","byteLength":96},{"uri":"gltf_buffer_41.bin","byteLength":96},{"uri":"gltf_buffer_42.bin","byteLength":96}],"bufferViews":[{"buffer":0,"byteOffset":0,"byteLength":144},{"buffer":1,"byteOffset":0,"byteLength":96},{"buffer":2,"byteOffset":0,"byteLength":96},{"buffer":3,"byteOffset":0,"byteLength":96},{"buffer":4,"byteOffset":0,"byteLength":96},{"buffer":5,"byteOffset":0,"byteLength":96},{"buffer":6,"byteOffset":0,"byteLength":96},{"buffer":7,"byteOffset":0,"byteLength":96},{"buffer":8,"byteOffset":0,"byteLength":96},{"buffer":9,"byteOffset":0,"byteLength":96},{"buffer":10,"byteOffset":0,"byteLength":96},{"buffer":11,"byteOffset":0,"byteLength":96},{"buffer":12,"byteOffset":0,"byteLength":96},{"buffer":13,"byteOffset":0,"byteLength":96},{"buffer":14,"byteOffset":0,"byteLength":96},{"buffer":15,"byteOffset":0,"byteLength":96},{"buffer":16,"byteOffset":0,"byteLength":96},{"buffer":17,"byteOffset":0,"byteLength":96},{"buffer":18,"byteOffset":0,"byteLength":96},{"buffer":19,"byteOffset":0,"byteLength":144},{"buffer":20,"byteOffset":0,"byteLength":96},{"buffer":21,"byteOffset":0,"byteLength":96},{"buffer":22,"byteOffset":0,"byteLength":96},{"buffer":23,"byteOffset":0,"byteLength":96},{"buffer":24,"byteOffset":0,"byteLength":96},{"buffer":25,"byteOffset":0,"byteLength":96},{"buffer":26,"byteOffset":0,"byteLength":96},{"buffer":27,"byteOffset":0,"byteLength":96},{"buffer":28,"byteOffset":0,"byteLength":96},{"buffer":29,"byteOffset":0,"byteLength":96},{"buffer":30,"byteOffset":0,"byteLength":96},{"buffer":31,"byteOffset":0,"byteLength":96},{"buffer":32,"byteOffset":0,"byteLength":96},{"buffer":33,"byteOffset":0,"byteLength":96},{"buffer":34,"byteOffset":0,"byteLength":96},{"buffer":35,"byteOffset":0,"byteLength":96},{"buffer":36,"byteOffset":0,"byteLength":96},{"buffer":37,"byteOffset":0,"byteLength":96},{"buffer":38,"byteOffset":0,"byteLength":96},{"buffer":39,"byteOffset":0,"byteLength":96},{"buffer":40,"byteOffset":0,"byteLength":96},{"buffer":41,"byteOffset":0,"byteLength":96},{"buffer":42,"byteOffset":0,"byteLength":96}]}